<?xml version="1.0" encoding="UTF-8"?>
<svg id="Layer_1" xmlns="http://www.w3.org/2000/svg" xmlns:xlink="http://www.w3.org/1999/xlink" version="1.1" viewBox="0 0 491 430">
  <!-- Generator: Adobe Illustrator 30.7.0, SVG Export Plug-In . SVG Version: 2.1.4 Build 114)  -->
  <defs>
    <style>
      .st0 {
        fill: url(#linear-gradient2);
      }

      .st1 {
        fill: url(#linear-gradient1);
      }

      .st2 {
        fill: url(#linear-gradient9);
      }

      .st3 {
        fill: url(#linear-gradient3);
      }

      .st4 {
        fill: url(#linear-gradient6);
      }

      .st5 {
        fill: url(#linear-gradient8);
      }

      .st6 {
        fill: url(#linear-gradient7);
      }

      .st7 {
        fill: url(#linear-gradient5);
      }

      .st8 {
        fill: url(#linear-gradient4);
      }

      .st9 {
        fill: url(#linear-gradient10);
      }

      .st10 {
        fill: #efefef;
      }

      .st11 {
        fill: url(#linear-gradient);
      }

      .st12 {
        fill: #fff;
      }

      .st13 {
        opacity: .3;
      }

      .st14 {
        fill: #bfa96a;
      }
    </style>
    <linearGradient id="linear-gradient" x1="93.2" y1="65.2" x2="397.1" y2="369.1" gradientTransform="translate(0 432) scale(1 -1)" gradientUnits="userSpaceOnUse">
      <stop offset="0" stop-color="#bdbec0"/>
      <stop offset=".4" stop-color="#ededee"/>
      <stop offset=".8" stop-color="#bdbec0"/>
      <stop offset=".9" stop-color="#838587"/>
    </linearGradient>
    <linearGradient id="linear-gradient1" x1="96.4" y1="365.9" x2="393.9" y2="68.4" gradientTransform="translate(0 432) scale(1 -1)" gradientUnits="userSpaceOnUse">
      <stop offset="0" stop-color="#dab465"/>
      <stop offset=".4" stop-color="#f6f4ae"/>
      <stop offset=".8" stop-color="#dab465"/>
      <stop offset=".9" stop-color="#8d6734"/>
    </linearGradient>
    <linearGradient id="linear-gradient2" x1="127.4" y1="99.4" x2="362.9" y2="334.9" gradientTransform="translate(0 432) scale(1 -1)" gradientUnits="userSpaceOnUse">
      <stop offset="0" stop-color="#bdbec0"/>
      <stop offset=".4" stop-color="#ededee"/>
      <stop offset=".8" stop-color="#bdbec0"/>
      <stop offset=".9" stop-color="#838587"/>
    </linearGradient>
    <linearGradient id="linear-gradient3" x1="88.6" y1="60.6" x2="401.7" y2="373.7" gradientTransform="translate(0 432) scale(1 -1)" gradientUnits="userSpaceOnUse">
      <stop offset="0" stop-color="#dab465"/>
      <stop offset=".4" stop-color="#f6f4ae"/>
      <stop offset=".8" stop-color="#dab465"/>
      <stop offset=".9" stop-color="#8d6734"/>
    </linearGradient>
    <linearGradient id="linear-gradient4" x1="92.1" y1="370.2" x2="398.2" y2="64.1" gradientTransform="translate(0 432) scale(1 -1)" gradientUnits="userSpaceOnUse">
      <stop offset="0" stop-color="#dab465"/>
      <stop offset=".4" stop-color="#f6f4ae"/>
      <stop offset=".8" stop-color="#dab465"/>
      <stop offset=".9" stop-color="#8d6734"/>
    </linearGradient>
    <linearGradient id="linear-gradient5" x1="229.3" y1="115.2" x2="261.1" y2="83.4" gradientTransform="translate(0 432) scale(1 -1)" gradientUnits="userSpaceOnUse">
      <stop offset="0" stop-color="#dab465"/>
      <stop offset=".4" stop-color="#f6f4ae"/>
      <stop offset=".8" stop-color="#dab465"/>
      <stop offset=".9" stop-color="#8d6734"/>
    </linearGradient>
    <linearGradient id="linear-gradient6" x1="176.7" y1="113.6" x2="195.8" y2="94.4" gradientTransform="translate(0 432) scale(1 -1)" gradientUnits="userSpaceOnUse">
      <stop offset="0" stop-color="#dab465"/>
      <stop offset=".4" stop-color="#f6f4ae"/>
      <stop offset=".8" stop-color="#dab465"/>
      <stop offset=".9" stop-color="#8d6734"/>
    </linearGradient>
    <linearGradient id="linear-gradient7" x1="294.5" y1="113.6" x2="313.7" y2="94.4" gradientTransform="translate(0 432) scale(1 -1)" gradientUnits="userSpaceOnUse">
      <stop offset="0" stop-color="#dab465"/>
      <stop offset=".4" stop-color="#f6f4ae"/>
      <stop offset=".8" stop-color="#dab465"/>
      <stop offset=".9" stop-color="#8d6734"/>
    </linearGradient>
    <linearGradient id="linear-gradient8" x1="229.7" y1="349.3" x2="261.5" y2="317.5" gradientTransform="translate(0 432) scale(1 -1)" gradientUnits="userSpaceOnUse">
      <stop offset="0" stop-color="#dab465"/>
      <stop offset=".4" stop-color="#f6f4ae"/>
      <stop offset=".8" stop-color="#dab465"/>
      <stop offset=".9" stop-color="#8d6734"/>
    </linearGradient>
    <linearGradient id="linear-gradient9" x1="176.7" y1="329.7" x2="195.9" y2="310.5" gradientTransform="translate(0 432) scale(1 -1)" gradientUnits="userSpaceOnUse">
      <stop offset="0" stop-color="#dab465"/>
      <stop offset=".4" stop-color="#f6f4ae"/>
      <stop offset=".8" stop-color="#dab465"/>
      <stop offset=".9" stop-color="#8d6734"/>
    </linearGradient>
    <linearGradient id="linear-gradient10" x1="294.5" y1="329.7" x2="313.7" y2="310.5" gradientTransform="translate(0 432) scale(1 -1)" gradientUnits="userSpaceOnUse">
      <stop offset="0" stop-color="#dab465"/>
      <stop offset=".4" stop-color="#f6f4ae"/>
      <stop offset=".8" stop-color="#dab465"/>
      <stop offset=".9" stop-color="#8d6734"/>
    </linearGradient>
  </defs>
  <path class="st11" d="M245.2,429.7c-57.4,0-111.4-22.4-151.9-62.9-40.6-40.6-62.9-94.5-62.9-151.9s22.4-111.3,62.9-151.9C133.8,22.4,187.8,0,245.2,0s111.4,22.4,151.9,62.9c40.6,40.6,62.9,94.5,62.9,151.9s-22.4,111.4-62.9,151.9c-40.6,40.6-94.5,62.9-151.9,62.9Z"/>
  <path class="st1" d="M245.2,425.2c116.2,0,210.4-94.2,210.4-210.4S361.3,4.5,245.2,4.5,34.8,98.7,34.8,214.9s94.2,210.4,210.4,210.4Z"/>
  <path class="st0" d="M245.2,381.4c-44.5,0-86.3-17.3-117.7-48.8-31.4-31.4-48.8-73.3-48.8-117.7s17.3-86.3,48.8-117.7c31.4-31.4,73.3-48.8,117.7-48.8s86.3,17.3,117.7,48.8c31.4,31.4,48.8,73.3,48.8,117.7s-17.3,86.3-48.8,117.7-73.3,48.8-117.7,48.8Z"/>
  <path class="st10" d="M245.2,377.3c89.7,0,162.5-72.7,162.5-162.5S334.9,52.4,245.2,52.4,82.7,125.1,82.7,214.9s72.7,162.5,162.5,162.5Z"/>
  <g class="st13">
    <path class="st12" d="M204.3,380c0,0,9.8,2.3,16.3,7.5,6.5,5.3,6.5,12.5,6.5,12.5,0,0-12.1-1.4-18.2-7.2-6-5.7-4.5-12.8-4.5-12.8h0Z"/>
    <path class="st12" d="M196,415.1c0,0,12.4,2.5,21.1-1,8.7-3.6,9.6-10.9,9.6-10.8,0,0-12-.9-20.3,2.1-8.3,3-10.4,9.7-10.4,9.8h0Z"/>
    <path class="st12" d="M182.5,373.9s8.8,3.3,13.9,9.2c5.2,6,4.1,12.9,4.1,12.9,0,0-10.9-2.8-15.6-9.1-4.7-6.3-2.3-13-2.3-13h0Z"/>
    <path class="st12" d="M169.8,407.2c0,0,11.1,3.9,19.6,1.4,8.5-2.5,10.4-9.5,10.4-9.4,0,0-10.9-2.3-19-.3-8.1,2-11,8.3-11,8.3h0Z"/>
    <path class="st12" d="M163.1,365.5s7.8,4.2,11.8,10.5c4,6.4,2,13.1,1.9,13.1,0,0-9.7-3.9-13.3-10.6-3.6-6.6-.3-12.9-.4-12.9h0Z"/>
    <path class="st12" d="M146.4,396.5c0,0,9.9,4.9,18.1,3.5,8.3-1.4,11-8.1,11-8,0,0-9.8-3.4-17.6-2.4-7.9,1.1-11.5,6.9-11.5,6.9Z"/>
    <path class="st12" d="M145.8,355.3s6.9,4.9,9.7,11.4c2.9,6.6,0,12.9,0,12.9,0,0-8.6-4.8-11.1-11.8-2.5-6.8,1.4-12.6,1.4-12.6h0Z"/>
    <path class="st12" d="M125.8,383.7c0,0,8.7,5.8,16.7,5.3,8-.5,11.5-6.7,11.5-6.6,0,0-8.7-4.4-16.3-4.2-7.6.2-11.9,5.5-11.9,5.5Z"/>
    <path class="st12" d="M130.5,343.5s6,5.5,7.9,12.1c1.9,6.8-1.7,12.6-1.7,12.6,0,0-7.5-5.6-9-12.6-1.5-6.9,2.9-12.1,2.9-12.1Z"/>
    <path class="st12" d="M107.8,369.2c0,0,7.6,6.5,15.3,6.8,7.7.3,11.8-5.3,11.8-5.3,0,0-7.7-5.2-15-5.8-7.3-.5-12.1,4.2-12.1,4.2Z"/>
    <path class="st12" d="M117.3,330.6s5.2,5.9,6.1,12.6c.9,6.8-3.2,12.1-3.2,12.1,0,0-6.5-6.2-7.1-13.1-.6-6.9,4.3-11.5,4.3-11.5Z"/>
    <path class="st12" d="M92.3,353.3c0,0,6.6,7.1,13.9,8.1,7.3,1.1,12-4,12-3.9,0,0-6.8-5.8-13.7-7.1-7-1.3-12.2,2.9-12.2,2.9Z"/>
    <path class="st12" d="M106,316.7s4.4,6.2,4.5,12.8c.1,6.6-4.5,11.4-4.5,11.4,0,0-5.6-6.6-5.4-13.4.2-6.7,5.5-10.7,5.4-10.7h0Z"/>
    <path class="st12" d="M79,336.4c0,0,5.6,7.5,12.5,9.2,7,1.7,12.1-2.7,12.1-2.7,0,0-5.8-6.3-12.5-8.2-6.6-1.9-12.2,1.6-12.2,1.7h0Z"/>
    <path class="st12" d="M96.4,302.2s3.6,6.5,3,12.9c-.6,6.5-5.7,10.6-5.7,10.6,0,0-4.7-7-3.8-13.6.9-6.5,6.5-9.9,6.5-9.9h0Z"/>
    <path class="st12" d="M68,318.8s4.6,7.8,11.2,10.1c6.6,2.3,12.1-1.5,12.1-1.4,0,0-5-6.7-11.3-9.1-6.3-2.4-12,.4-12,.5h0Z"/>
    <path class="st12" d="M88.6,287.2s2.9,6.6,1.6,12.8c-1.3,6.2-6.7,9.8-6.7,9.8,0,0-3.8-7.2-2.3-13.5,1.5-6.2,7.4-9,7.3-9h0Z"/>
    <path class="st12" d="M59.1,300.7s3.7,7.9,9.9,10.8c6.2,2.9,11.9-.3,11.9-.3,0,0-4.1-7-10-9.9-5.9-3-11.8-.7-11.8-.6Z"/>
    <path class="st12" d="M82.4,271.9s2.2,6.7.3,12.5c-1.9,5.9-7.5,8.9-7.5,8.9,0,0-3-7.3-.9-13.3,2.1-5.9,8.1-8.1,8.1-8.1h0Z"/>
    <path class="st12" d="M52.1,282.3s2.9,8,8.7,11.4c5.8,3.4,11.7.8,11.7.8,0,0-3.4-7.1-8.9-10.5-5.5-3.4-11.6-1.7-11.6-1.7h0Z"/>
    <path class="st12" d="M77.7,256.5s1.5,6.7-.9,12.2c-2.4,5.6-8.2,8-8.3,7.9,0,0-2.2-7.4.4-13,2.6-5.5,8.7-7.1,8.7-7.1h0Z"/>
    <path class="st12" d="M47,263.9s2.1,8.1,7.5,11.8c5.4,3.8,11.4,1.8,11.4,1.9,0,0-2.6-7.2-7.7-11-5.1-3.8-11.2-2.7-11.2-2.7h0Z"/>
    <path class="st12" d="M74.5,241.1s.9,6.6-2,11.8c-2.9,5.2-8.8,7-8.9,7,0,0-1.5-7.4,1.6-12.6,3.1-5.2,9.2-6.1,9.2-6.2h0Z"/>
    <path class="st12" d="M43.7,245.5s1.3,8,6.3,12.1c4.9,4.1,11.1,2.8,11.1,2.8,0,0-1.9-7.2-6.6-11.4-4.7-4.1-10.8-3.6-10.8-3.6h0Z"/>
    <path class="st12" d="M72.8,225.8s.3,6.5-3,11.3c-3.3,4.8-9.3,6-9.3,6,0,0-.8-7.3,2.7-12.1,3.5-4.7,9.6-5.2,9.6-5.2h0Z"/>
    <path class="st12" d="M42,227.4s.6,7.9,5.1,12.3c4.5,4.5,10.7,3.7,10.6,3.7,0,0-1.2-7.2-5.4-11.6-4.2-4.4-10.3-4.5-10.3-4.4h0Z"/>
    <path class="st12" d="M72.3,210.8s-.3,6.4-3.9,10.8c-3.7,4.4-9.7,5-9.7,5,0,0-.2-7.2,3.7-11.5,3.8-4.3,9.9-4.2,9.9-4.2Z"/>
    <path class="st12" d="M41.9,209.7s0,7.7,4,12.4c4,4.7,10.2,4.5,10.2,4.6,0,0-.6-7.1-4.4-11.8-3.8-4.7-9.7-5.2-9.8-5.2Z"/>
    <path class="st12" d="M73.2,196.1s-.8,6.2-4.7,10.1c-4,4-10,4.1-10,4,0,0,.4-7,4.6-10.9,4.2-3.9,10.1-3.2,10.1-3.3Z"/>
    <path class="st12" d="M43.3,192.4s-.7,7.5,2.9,12.5c3.6,4.9,9.6,5.3,9.6,5.3,0,0,0-7-3.3-11.9-3.3-4.9-9.2-5.9-9.2-5.9h0Z"/>
    <path class="st12" d="M75.2,181.8s-1.3,6-5.5,9.5c-4.3,3.5-10.2,3.1-10.2,3.1,0,0,1-6.8,5.4-10.3,4.4-3.4,10.2-2.3,10.2-2.3h0Z"/>
    <path class="st12" d="M46,175.7s-1.3,7.3,1.8,12.4c3.1,5.1,9.1,6,9,6,0,0,.6-6.8-2.3-11.9-2.9-5-8.6-6.6-8.6-6.6h0Z"/>
    <path class="st12" d="M78.4,168s-1.8,5.8-6.2,8.9c-4.5,3.1-10.3,2.2-10.3,2.2,0,0,1.5-6.6,6.2-9.6,4.6-3,10.3-1.4,10.3-1.4Z"/>
    <path class="st12" d="M50.2,159.6s-1.9,7,.8,12.3c2.6,5.3,8.4,6.6,8.4,6.6,0,0,1.2-6.6-1.3-11.8-2.4-5.2-7.9-7.1-7.9-7.1h0Z"/>
    <path class="st12" d="M82.7,154.7s-2.2,5.5-6.9,8.2c-4.7,2.7-10.3,1.3-10.3,1.3,0,0,2-6.3,6.9-8.9,4.8-2.6,10.3-.5,10.3-.6h0Z"/>
    <path class="st12" d="M55.5,144.1s-2.4,6.7-.2,12.1c2.2,5.4,7.8,7.2,7.8,7.2,0,0,1.7-6.4-.3-11.6-2-5.3-7.2-7.6-7.2-7.6Z"/>
    <path class="st12" d="M88,142s-2.6,5.3-7.4,7.5c-4.8,2.2-10.3.4-10.3.4,0,0,2.5-6,7.5-8.1,5-2.1,10.2.3,10.2.3h0Z"/>
    <path class="st12" d="M62,129.4s-2.9,6.4-1.2,11.8c1.7,5.4,7.1,7.7,7.1,7.7,0,0,2.2-6.1.7-11.4-1.5-5.3-6.5-8.1-6.5-8.1Z"/>
    <path class="st12" d="M94.3,129.9s-3.1,5-7.9,6.8c-5,1.8-10.2-.4-10.2-.4,0,0,3-5.7,8.1-7.4,5.1-1.7,10,1.1,10,1.1h0Z"/>
    <path class="st12" d="M69.7,115.5s-3.4,6.1-2.2,11.5c1.2,5.5,6.4,8.1,6.3,8.1,0,0,2.6-5.8,1.6-11.2-1.1-5.4-5.7-8.5-5.8-8.5Z"/>
    <path class="st12" d="M101.5,118.5s-3.4,4.7-8.4,6.1c-5,1.4-10-1.2-10-1.2,0,0,3.4-5.4,8.6-6.7,5.1-1.3,9.8,1.8,9.8,1.8h0Z"/>
    <path class="st12" d="M78.4,102.4s-3.9,5.7-3.1,11.2c.8,5.5,5.6,8.5,5.6,8.5,0,0,3.1-5.5,2.5-10.9-.6-5.4-5-8.8-5-8.8h0Z"/>
    <path class="st12" d="M109.6,107.8s-3.8,4.4-8.8,5.4c-5.1,1-9.8-2-9.8-2,0,0,3.8-5,9.1-5.9,5.2-.9,9.6,2.6,9.6,2.5h0Z"/>
    <path class="st12" d="M88.1,90.1s-4.3,5.4-4,10.8c.3,5.5,4.9,8.8,4.8,8.8,0,0,3.5-5.2,3.4-10.6-.2-5.4-4.2-9.1-4.2-9.1Z"/>
    <path class="st12" d="M118.6,97.7s-4.1,4.1-9.2,4.7c-5.1.6-9.5-2.7-9.5-2.7,0,0,4.2-4.7,9.5-5.2,5.2-.5,9.3,3.2,9.3,3.2Z"/>
    <path class="st12" d="M98.7,78.6s-4.7,5-4.8,10.4c-.1,5.5,4.1,9.1,4,9.1,0,0,3.9-4.9,4.2-10.2.3-5.3-3.4-9.3-3.4-9.3h0Z"/>
    <path class="st12" d="M128.3,88.4s-4.5,3.8-9.5,4c-5.2.2-9.2-3.3-9.2-3.4,0,0,4.6-4.4,9.9-4.5,5.2-.1,8.9,3.9,8.9,3.8h0Z"/>
    <path class="st12" d="M110.2,68.1s-5.1,4.6-5.7,10c-.6,5.4,3.3,9.3,3.2,9.3,0,0,4.3-4.6,5-9.8.7-5.3-2.6-9.5-2.6-9.5h0Z"/>
    <path class="st12" d="M138.8,79.8s-4.8,3.4-9.8,3.3c-5.1-.1-8.9-4-8.9-4,0,0,4.9-4,10.2-3.7,5.2.3,8.5,4.4,8.5,4.4h0Z"/>
    <path class="st12" d="M146.7,58s-2.2,5.5-6.8,8.6c-4.7,3.2-10.5,3-10.5,3.1,0,0,1.5-5.7,6.4-9,4.9-3.3,10.9-2.7,10.9-2.7h0Z"/>
    <path class="st12" d="M122.5,58.4s-5.5,4.2-6.5,9.5c-1.1,5.3,2.5,9.4,2.4,9.4,0,0,4.6-4.2,5.8-9.4,1.2-5.2-1.8-9.6-1.8-9.6Z"/>
    <path class="st12" d="M286.1,380c0,0-9.8,2.3-16.3,7.5-6.5,5.3-6.5,12.5-6.5,12.5,0,0,12.1-1.4,18.2-7.2,6-5.7,4.5-12.8,4.5-12.8h0Z"/>
    <path class="st12" d="M294.3,415.1c0,0-12.4,2.5-21.1-1-8.7-3.6-9.6-10.9-9.6-10.8,0,0,12-.9,20.3,2.1,8.3,3,10.4,9.7,10.4,9.8h0Z"/>
    <path class="st12" d="M307.8,373.9s-8.8,3.3-13.9,9.2c-5.2,6-4.1,12.9-4.1,12.9,0,0,10.9-2.8,15.6-9.1,4.7-6.3,2.3-13,2.3-13h0Z"/>
    <path class="st12" d="M320.5,407.2c0,0-11.1,3.9-19.6,1.4-8.5-2.5-10.4-9.5-10.4-9.4,0,0,10.9-2.3,19-.3,8.1,2,11,8.3,11,8.3Z"/>
    <path class="st12" d="M327.3,365.5s-7.8,4.2-11.8,10.5c-4,6.4-2,13.1-1.9,13.1,0,0,9.7-3.9,13.3-10.6,3.6-6.6.3-12.9.4-12.9h0Z"/>
    <path class="st12" d="M343.9,396.5c0,0-9.9,4.9-18.1,3.5-8.3-1.4-11-8.1-11-8,0,0,9.8-3.4,17.6-2.4,7.9,1.1,11.5,6.9,11.5,6.9Z"/>
    <path class="st12" d="M344.6,355.3s-6.9,4.9-9.7,11.4c-2.9,6.6,0,12.9,0,12.9,0,0,8.6-4.8,11.1-11.8,2.5-6.8-1.4-12.6-1.4-12.6h0Z"/>
    <path class="st12" d="M364.5,383.7c0,0-8.7,5.8-16.7,5.3-8-.5-11.5-6.7-11.5-6.6,0,0,8.7-4.4,16.3-4.2,7.6.2,11.9,5.5,11.9,5.5Z"/>
    <path class="st12" d="M359.8,343.5s-6,5.5-7.9,12.1c-1.9,6.8,1.7,12.6,1.7,12.6,0,0,7.5-5.6,9-12.6,1.5-6.9-2.9-12.1-2.9-12.1Z"/>
    <path class="st12" d="M382.5,369.2c0,0-7.6,6.5-15.3,6.8-7.7.3-11.8-5.3-11.8-5.3,0,0,7.7-5.2,15-5.8,7.3-.5,12.1,4.2,12.1,4.2Z"/>
    <path class="st12" d="M373,330.6s-5.2,5.9-6.1,12.6c-.9,6.8,3.2,12.1,3.2,12.1,0,0,6.5-6.2,7.1-13.1.6-6.9-4.3-11.5-4.3-11.5Z"/>
    <path class="st12" d="M398.1,353.3c0,0-6.6,7.1-13.9,8.1-7.3,1.1-12-4-12-3.9,0,0,6.8-5.8,13.7-7.1,7-1.3,12.2,2.9,12.2,2.9Z"/>
    <path class="st12" d="M384.4,316.7s-4.4,6.2-4.5,12.8c-.1,6.6,4.5,11.4,4.5,11.4,0,0,5.6-6.6,5.4-13.4-.2-6.7-5.5-10.7-5.4-10.7h0Z"/>
    <path class="st12" d="M411.3,336.4c0,0-5.6,7.5-12.5,9.2-7,1.7-12.1-2.7-12.1-2.7,0,0,5.8-6.3,12.5-8.2,6.6-1.9,12.2,1.6,12.2,1.7h0Z"/>
    <path class="st12" d="M393.9,302.2s-3.6,6.5-3,12.9c.6,6.5,5.7,10.6,5.7,10.6,0,0,4.7-7,3.8-13.6-.9-6.5-6.5-9.9-6.5-9.9h0Z"/>
    <path class="st12" d="M422.3,318.8s-4.6,7.8-11.2,10.1c-6.6,2.3-12.1-1.5-12.1-1.4,0,0,5-6.7,11.3-9.1,6.3-2.4,12,.4,12,.5h0Z"/>
    <path class="st12" d="M401.8,287.2s-2.9,6.6-1.6,12.8c1.3,6.2,6.7,9.8,6.7,9.8,0,0,3.8-7.2,2.3-13.5-1.5-6.2-7.4-9-7.3-9h0Z"/>
    <path class="st12" d="M431.2,300.7s-3.7,7.9-9.9,10.8c-6.2,2.9-11.9-.3-11.9-.3,0,0,4.1-7,10-9.9,5.9-3,11.8-.7,11.8-.6Z"/>
    <path class="st12" d="M408,271.9s-2.2,6.7-.3,12.5c1.9,5.9,7.5,8.9,7.5,8.9,0,0,3-7.3.9-13.3-2.1-5.9-8.1-8.1-8.1-8.1h0Z"/>
    <path class="st12" d="M438.2,282.3s-2.9,8-8.7,11.4c-5.8,3.4-11.7.8-11.7.8,0,0,3.4-7.1,8.9-10.5,5.5-3.4,11.6-1.7,11.6-1.7h0Z"/>
    <path class="st12" d="M412.6,256.5s-1.5,6.7.9,12.2c2.4,5.6,8.2,8,8.3,7.9,0,0,2.2-7.4-.4-13-2.6-5.5-8.7-7.1-8.7-7.1h0Z"/>
    <path class="st12" d="M443.3,263.9s-2.1,8.1-7.5,11.8c-5.4,3.8-11.4,1.8-11.4,1.9,0,0,2.6-7.2,7.7-11,5.1-3.8,11.2-2.7,11.2-2.7h0Z"/>
    <path class="st12" d="M415.8,241.1s-.9,6.6,2,11.8c2.9,5.2,8.8,7,8.9,7,0,0,1.5-7.4-1.6-12.6-3.1-5.2-9.2-6.1-9.2-6.2h0Z"/>
    <path class="st12" d="M446.7,245.5s-1.3,8-6.3,12.1c-4.9,4.1-11.1,2.8-11.1,2.8,0,0,1.9-7.2,6.6-11.4,4.7-4.1,10.8-3.6,10.8-3.6h0Z"/>
    <path class="st12" d="M417.6,225.8s-.3,6.5,3,11.3c3.3,4.8,9.3,6,9.3,6,0,0,.8-7.3-2.7-12.1-3.5-4.7-9.6-5.2-9.6-5.2h0Z"/>
    <path class="st12" d="M448.4,227.4s-.6,7.9-5.1,12.3c-4.5,4.5-10.7,3.7-10.6,3.7,0,0,1.2-7.2,5.4-11.6,4.2-4.4,10.3-4.5,10.3-4.4h0Z"/>
    <path class="st12" d="M418,210.8s.3,6.4,3.9,10.8c3.7,4.4,9.7,5,9.7,5,0,0,.2-7.2-3.7-11.5-3.8-4.3-9.9-4.2-9.9-4.2Z"/>
    <path class="st12" d="M448.5,209.7s0,7.7-4,12.4c-4,4.7-10.2,4.5-10.2,4.6,0,0,.6-7.1,4.4-11.8,3.8-4.7,9.7-5.2,9.8-5.2Z"/>
    <path class="st12" d="M417.1,196.1s.8,6.2,4.7,10.1c4,4,10,4.1,10,4,0,0-.4-7-4.6-10.9-4.2-3.9-10.1-3.2-10.1-3.3Z"/>
    <path class="st12" d="M447.1,192.4s.7,7.5-2.9,12.5c-3.6,4.9-9.6,5.3-9.6,5.3,0,0,0-7,3.3-11.9,3.3-4.9,9.2-5.9,9.2-5.9h0Z"/>
    <path class="st12" d="M415.1,181.8s1.3,6,5.5,9.5c4.3,3.5,10.2,3.1,10.2,3.1,0,0-1-6.8-5.4-10.3-4.4-3.4-10.2-2.3-10.2-2.3h0Z"/>
    <path class="st12" d="M444.3,175.7s1.3,7.3-1.8,12.4c-3.1,5.1-9.1,6-9,6,0,0-.6-6.8,2.3-11.9,2.9-5,8.6-6.6,8.6-6.6h0Z"/>
    <path class="st12" d="M411.9,168s1.8,5.8,6.2,8.9c4.5,3.1,10.3,2.2,10.3,2.2,0,0-1.5-6.6-6.2-9.6-4.6-3-10.3-1.4-10.3-1.4Z"/>
    <path class="st12" d="M440.2,159.6s1.9,7-.8,12.3c-2.6,5.3-8.4,6.6-8.4,6.6,0,0-1.2-6.6,1.3-11.8,2.4-5.2,7.9-7.1,7.9-7.1Z"/>
    <path class="st12" d="M407.6,154.7s2.2,5.5,6.9,8.2c4.7,2.7,10.3,1.3,10.3,1.3,0,0-2-6.3-6.9-8.9-4.8-2.6-10.3-.5-10.3-.6h0Z"/>
    <path class="st12" d="M434.8,144.1s2.4,6.7.2,12.1c-2.2,5.4-7.8,7.2-7.8,7.2,0,0-1.7-6.4.3-11.6,2-5.3,7.2-7.6,7.2-7.6Z"/>
    <path class="st12" d="M402.3,142s2.6,5.3,7.4,7.5c4.8,2.2,10.3.4,10.3.4,0,0-2.5-6-7.5-8.1-5-2.1-10.2.3-10.2.3h0Z"/>
    <path class="st12" d="M428.3,129.4s2.9,6.4,1.2,11.8c-1.7,5.4-7.1,7.7-7.1,7.7,0,0-2.2-6.1-.7-11.4,1.5-5.3,6.5-8.1,6.5-8.1Z"/>
    <path class="st12" d="M396,129.9s3.1,5,7.9,6.8c5,1.8,10.2-.4,10.2-.4,0,0-3-5.7-8.1-7.4-5.1-1.7-10,1.1-10,1.1h0Z"/>
    <path class="st12" d="M420.6,115.5s3.4,6.1,2.2,11.5c-1.2,5.5-6.4,8.1-6.3,8.1,0,0-2.6-5.8-1.6-11.2,1.1-5.4,5.7-8.5,5.8-8.5Z"/>
    <path class="st12" d="M388.8,118.5s3.4,4.7,8.4,6.1c5,1.4,10-1.2,10-1.2,0,0-3.4-5.4-8.6-6.7-5.1-1.3-9.8,1.8-9.8,1.8h0Z"/>
    <path class="st12" d="M411.9,102.4s3.9,5.7,3.1,11.2c-.8,5.5-5.6,8.5-5.6,8.5,0,0-3.1-5.5-2.5-10.9.6-5.4,5-8.8,5-8.8h0Z"/>
    <path class="st12" d="M380.7,107.8s3.8,4.4,8.8,5.4c5.1,1,9.8-2,9.8-2,0,0-3.8-5-9.1-5.9-5.2-.9-9.6,2.6-9.6,2.5h0Z"/>
    <path class="st12" d="M402.2,90.1s4.3,5.4,4,10.8c-.3,5.5-4.9,8.8-4.8,8.8,0,0-3.5-5.2-3.4-10.6.2-5.4,4.2-9.1,4.2-9.1Z"/>
    <path class="st12" d="M371.8,97.7s4.1,4.1,9.2,4.7c5.1.6,9.5-2.7,9.5-2.7,0,0-4.2-4.7-9.5-5.2-5.2-.5-9.3,3.2-9.3,3.2Z"/>
    <path class="st12" d="M391.6,78.6s4.7,5,4.8,10.4c.1,5.5-4.1,9.1-4,9.1,0,0-3.9-4.9-4.2-10.2-.3-5.3,3.4-9.3,3.4-9.3h0Z"/>
    <path class="st12" d="M362,88.4s4.5,3.8,9.5,4c5.2.2,9.2-3.3,9.2-3.4,0,0-4.6-4.4-9.9-4.5-5.2-.1-8.9,3.9-8.9,3.8h0Z"/>
    <path class="st12" d="M380.1,68.1s5.1,4.6,5.7,10c.6,5.4-3.3,9.3-3.2,9.3,0,0-4.3-4.6-5-9.8-.7-5.3,2.6-9.5,2.6-9.5h0Z"/>
    <path class="st12" d="M351.6,79.8s4.8,3.4,9.8,3.3c5.1-.1,8.9-4,8.9-4,0,0-4.9-4-10.2-3.7-5.2.3-8.5,4.4-8.5,4.4h0Z"/>
    <path class="st12" d="M343.7,58s2.2,5.5,6.8,8.6c4.7,3.2,10.5,3,10.5,3.1,0,0-1.5-5.7-6.4-9-4.9-3.3-10.9-2.7-10.9-2.7Z"/>
    <path class="st12" d="M367.8,58.4s5.5,4.2,6.5,9.5c1.1,5.3-2.5,9.4-2.4,9.4,0,0-4.6-4.2-5.8-9.4-1.2-5.2,1.8-9.6,1.8-9.6h0Z"/>
  </g>
  <path class="st3" d="M481.2,141.6H9.1c-5,0-9.1,4.1-9.1,9.1v128.2c0,5,4.1,9.1,9.1,9.1h472.1c5,0,9.1-4.1,9.1-9.1v-128.2c0-5-4.1-9.1-9.1-9.1Z"/>
  <path class="st8" d="M486.3,276.8v-123.8c0-4-3.3-7.3-7.3-7.3H11.3c-4,0-7.3,3.3-7.3,7.3v123.8c0,4,3.3,7.3,7.3,7.3h467.7c4,0,7.3-3.3,7.3-7.3Z"/>
  <path class="st14" d="M470.1,267.8H20.2v-106h449.8v106ZM23.9,264.2h442.6v-98.7H23.9v98.7Z"/>
  <path class="st12" d="M23.9,264.2h442.6v-98.7H23.9v98.7Z"/>
  <path class="st7" d="M245.2,307.2l5.8,15.9,16.9.7-13.3,10.5,4.6,16.3-14.1-9.4-14.1,9.4,4.6-16.3-13.3-10.5,16.9-.7,5.8-15.9Z"/>
  <path class="st4" d="M186.3,312.6l3.5,9.6,10.2.4-8,6.3,2.8,9.8-8.5-5.7-8.5,5.7,2.8-9.8-8-6.3,10.2-.4,3.5-9.6Z"/>
  <path class="st6" d="M304.1,312.6l3.5,9.6,10.2.4-8,6.3,2.8,9.8-8.5-5.7-8.5,5.7,2.8-9.8-8-6.3,10.2-.4,3.5-9.6Z"/>
  <path class="st5" d="M245.6,73l5.8,15.9,16.9.7-13.3,10.5,4.6,16.3-14.1-9.4-14.1,9.4,4.6-16.3-13.3-10.5,16.9-.7,5.8-15.9Z"/>
  <path class="st2" d="M186.3,96.5l3.5,9.6,10.2.4-8,6.3,2.8,9.8-8.5-5.7-8.5,5.7,2.8-9.8-8-6.3,10.2-.4,3.5-9.6Z"/>
  <path class="st9" d="M304.1,96.5l3.5,9.6,10.2.4-8,6.3,2.8,9.8-8.5-5.7-8.5,5.7,2.8-9.8-8-6.3,10.2-.4,3.5-9.6Z"/>
  <g>
    <path d="M118.1,220.4h-19.2l-3.5,7.8h-4.3l15.2-34.4h4.3l15.2,34.4h-4.3l-3.5-7.8ZM116.5,216.7l-8-18.1-8,18.1h16Z"/>
    <path d="M129.1,202.3h4l6.5,20.9,7.1-20.9h3.3l7.1,20.9,6.5-20.9h4l-8.7,25.9h-3.6l-6.9-20.7-7,20.7h-3.5l-8.7-25.9Z"/>
    <path d="M193.9,212.4v15.8h-3.8v-4.1c-1.8,3.1-5.7,4.7-9.1,4.7-5.5,0-9.5-3.2-9.5-8.3s4.6-8.6,10.2-8.6,5.8.6,8.4,1.5v-1c0-3.5-1.4-7.5-7-7.5s-5.2,1.1-7.6,2.4l-1.5-3.1c3.7-1.9,6.8-2.5,9.3-2.5,7,0,10.5,4.5,10.5,10.7ZM190.1,220.1v-4c-2.3-.6-5-1-7.8-1s-7.1,2.2-7.1,5.3,2.8,5.1,6.4,5.1,7.5-1.8,8.5-5.4Z"/>
    <path d="M215.6,201.7v3.4c-5.9,0-10,3.6-10,8.7v14.5h-3.8v-25.9h3.8v5.1c1.5-3.5,5.3-5.7,10-5.7Z"/>
    <path d="M244.7,193.2v35h-3.8v-4.9c-2,3.4-5.3,5.5-9.4,5.5-6.8,0-11.9-5.6-11.9-13.6s5.1-13.5,11.9-13.5,7.5,2.1,9.4,5.5v-14h3.8ZM241,215.2c0-6-3.6-10.2-8.7-10.2s-8.7,4.2-8.7,10.2,3.6,10.2,8.7,10.2,8.7-4.3,8.7-10.2Z"/>
    <path d="M270.8,194h3.9l21.3,28v-28h3.9v34.4h-3.9l-21.3-28v28h-3.9v-34.4Z"/>
    <path d="M329.4,212.6v15.8h-3.8v-4.1c-1.9,3.1-5.7,4.7-9.1,4.7-5.5,0-9.5-3.2-9.5-8.2s4.6-8.6,10.2-8.6,5.8.6,8.4,1.5v-1c0-3.5-1.4-7.5-7-7.5s-5.2,1.2-7.6,2.3l-1.5-3c3.7-1.9,6.8-2.5,9.3-2.5,7.1,0,10.5,4.5,10.5,10.7ZM325.6,220.3v-3.9c-2.4-.7-5-1.1-7.8-1.1s-7.1,2.2-7.1,5.3,2.8,5.1,6.5,5.1,7.5-1.8,8.5-5.4Z"/>
    <path d="M374.2,211.9v16.5h-3.8v-16c0-4.2-2.5-7.2-6-7.2s-7,2.8-7,6.7v16.5h-3.8v-16c0-4.2-2.4-7.2-6-7.2s-7,2.8-7,6.7v16.5h-3.7v-25.9h3.7v3.8c1.3-2.7,4.1-4.4,7.5-4.4s7,2.2,8.4,5.5c1.1-3.4,4.5-5.5,8.4-5.5s9.2,4.2,9.2,10Z"/>
    <path d="M401.6,222.5l2.3,2.5c-2.2,2.4-6.8,4-10.4,4-6.9,0-13.1-5.7-13.1-13.6s5.8-13.5,12.8-13.5,12.3,5.9,12.3,15h-21.2c.5,5,4.1,8.8,9.2,8.8s6.6-1.4,8.2-3.1ZM384.3,213.5h17.4c-.5-4.7-3.3-8.2-8.4-8.2s-8.3,3.2-9,8.2Z"/>
  </g>
</svg>