<?xml version="1.0" encoding="UTF-8"?>
<svg id="Layer_1" xmlns="http://www.w3.org/2000/svg" xmlns:xlink="http://www.w3.org/1999/xlink" version="1.1" viewBox="0 0 512 512">
  <!-- Generator: Adobe Illustrator 30.7.0, SVG Export Plug-In . SVG Version: 2.1.4 Build 114)  -->
  <defs>
    <style>
      .st0 {
        fill: url(#linear-gradient9);
      }

      .st1 {
        fill: url(#linear-gradient3);
      }

      .st2 {
        fill: url(#linear-gradient6);
      }

      .st3 {
        fill: url(#linear-gradient8);
      }

      .st4 {
        fill: url(#linear-gradient7);
      }

      .st5 {
        fill: url(#linear-gradient5);
      }

      .st6 {
        fill: url(#linear-gradient4);
      }

      .st7 {
        fill: url(#linear-gradient13);
      }

      .st8 {
        fill: url(#linear-gradient12);
      }

      .st9 {
        fill: url(#linear-gradient15);
      }

      .st10 {
        fill: url(#linear-gradient16);
      }

      .st11 {
        fill: url(#linear-gradient11);
      }

      .st12 {
        fill: url(#linear-gradient10);
      }

      .st13 {
        fill: url(#linear-gradient17);
      }

      .st14 {
        fill: url(#linear-gradient14);
      }

      .st15 {
        fill: url(#linear-gradient);
        stroke: url(#linear-gradient1);
        stroke-width: 5px;
      }

      .st15, .st16 {
        stroke-miterlimit: 10;
      }

      .st17 {
        fill: #fff;
      }

      .st16 {
        fill: none;
        stroke: url(#linear-gradient2);
      }
    </style>
    <linearGradient id="linear-gradient" x1="78.6" y1="106.4" x2="434.5" y2="405" gradientUnits="userSpaceOnUse">
      <stop offset="0" stop-color="#000"/>
      <stop offset="0" stop-color="#040404"/>
      <stop offset=".3" stop-color="#101010"/>
      <stop offset=".4" stop-color="#252525"/>
      <stop offset=".5" stop-color="#2d2d2d"/>
      <stop offset=".6" stop-color="#202020"/>
      <stop offset=".7" stop-color="#0e0e0e"/>
      <stop offset=".8" stop-color="#030303"/>
      <stop offset="1" stop-color="#000"/>
    </linearGradient>
    <linearGradient id="linear-gradient1" x1="35.9" y1="175.4" x2="477.2" y2="336" gradientUnits="userSpaceOnUse">
      <stop offset="0" stop-color="#999"/>
      <stop offset="0" stop-color="#9d9d9d"/>
      <stop offset=".2" stop-color="#a9a9a9"/>
      <stop offset=".3" stop-color="#bebebe"/>
      <stop offset=".4" stop-color="#dbdbdb"/>
      <stop offset=".5" stop-color="#fff"/>
      <stop offset=".5" stop-color="#f4f4f4"/>
      <stop offset=".6" stop-color="#d3d3d3"/>
      <stop offset=".7" stop-color="#b9b9b9"/>
      <stop offset=".8" stop-color="#a7a7a7"/>
      <stop offset=".9" stop-color="#9c9c9c"/>
      <stop offset="1" stop-color="#999"/>
    </linearGradient>
    <linearGradient id="linear-gradient2" x1="91.8" y1="117.4" x2="421.3" y2="393.9" gradientUnits="userSpaceOnUse">
      <stop offset="0" stop-color="#dc9b49"/>
      <stop offset=".2" stop-color="#dc9c4a"/>
      <stop offset=".3" stop-color="#dd9f51"/>
      <stop offset=".3" stop-color="#dfa65d"/>
      <stop offset=".4" stop-color="#e3af6e"/>
      <stop offset=".4" stop-color="#e7bb84"/>
      <stop offset=".5" stop-color="#ecca9f"/>
      <stop offset=".5" stop-color="#f2dcbf"/>
      <stop offset=".5" stop-color="#f9f0e4"/>
      <stop offset=".5" stop-color="#fff"/>
      <stop offset=".6" stop-color="#f9f0e4"/>
      <stop offset=".6" stop-color="#f2dcbf"/>
      <stop offset=".6" stop-color="#ecca9f"/>
      <stop offset=".6" stop-color="#e7bb84"/>
      <stop offset=".7" stop-color="#e3af6e"/>
      <stop offset=".7" stop-color="#dfa65d"/>
      <stop offset=".8" stop-color="#dd9f51"/>
      <stop offset=".8" stop-color="#dc9c4a"/>
      <stop offset="1" stop-color="#dc9b49"/>
    </linearGradient>
    <linearGradient id="linear-gradient3" x1="69" y1="348.2" x2="127.6" y2="348.2" gradientUnits="userSpaceOnUse">
      <stop offset="0" stop-color="#dc9b49"/>
      <stop offset="0" stop-color="#dc9c4b"/>
      <stop offset=".2" stop-color="#dca054"/>
      <stop offset=".3" stop-color="#dda864"/>
      <stop offset=".4" stop-color="#dfb379"/>
      <stop offset=".5" stop-color="#e1c195"/>
      <stop offset=".5" stop-color="#e3cfb1"/>
      <stop offset=".6" stop-color="#e1c49c"/>
      <stop offset=".6" stop-color="#dfb57e"/>
      <stop offset=".7" stop-color="#dea966"/>
      <stop offset=".8" stop-color="#dca156"/>
      <stop offset=".9" stop-color="#dc9c4c"/>
      <stop offset="1" stop-color="#dc9b49"/>
    </linearGradient>
    <linearGradient id="linear-gradient4" x1="43.1" y1="321.8" x2="99.6" y2="321.8" gradientUnits="userSpaceOnUse">
      <stop offset="0" stop-color="#dc9b49"/>
      <stop offset="0" stop-color="#dc9c4b"/>
      <stop offset=".2" stop-color="#dca054"/>
      <stop offset=".3" stop-color="#dda864"/>
      <stop offset=".4" stop-color="#dfb379"/>
      <stop offset=".5" stop-color="#e1c195"/>
      <stop offset=".5" stop-color="#e3cfb1"/>
      <stop offset=".6" stop-color="#e1c49c"/>
      <stop offset=".6" stop-color="#dfb57e"/>
      <stop offset=".7" stop-color="#dea966"/>
      <stop offset=".8" stop-color="#dca156"/>
      <stop offset=".9" stop-color="#dc9c4c"/>
      <stop offset="1" stop-color="#dc9b49"/>
    </linearGradient>
    <linearGradient id="linear-gradient5" x1="22" y1="292.6" x2="76.8" y2="292.6" gradientUnits="userSpaceOnUse">
      <stop offset="0" stop-color="#dc9b49"/>
      <stop offset="0" stop-color="#dc9c4b"/>
      <stop offset=".2" stop-color="#dca054"/>
      <stop offset=".3" stop-color="#dda864"/>
      <stop offset=".4" stop-color="#dfb379"/>
      <stop offset=".5" stop-color="#e1c195"/>
      <stop offset=".5" stop-color="#e3cfb1"/>
      <stop offset=".6" stop-color="#e1c49c"/>
      <stop offset=".6" stop-color="#dfb57e"/>
      <stop offset=".7" stop-color="#dea966"/>
      <stop offset=".8" stop-color="#dca156"/>
      <stop offset=".9" stop-color="#dc9c4c"/>
      <stop offset="1" stop-color="#dc9b49"/>
    </linearGradient>
    <linearGradient id="linear-gradient6" x1="164.6" y1="410.8" x2="229.1" y2="410.8" gradientUnits="userSpaceOnUse">
      <stop offset="0" stop-color="#dc9b49"/>
      <stop offset="0" stop-color="#dc9c4b"/>
      <stop offset=".2" stop-color="#dca054"/>
      <stop offset=".3" stop-color="#dda864"/>
      <stop offset=".4" stop-color="#dfb379"/>
      <stop offset=".5" stop-color="#e1c195"/>
      <stop offset=".5" stop-color="#e3cfb1"/>
      <stop offset=".6" stop-color="#e1c49c"/>
      <stop offset=".6" stop-color="#dfb57e"/>
      <stop offset=".7" stop-color="#dea966"/>
      <stop offset=".8" stop-color="#dca156"/>
      <stop offset=".9" stop-color="#dc9c4c"/>
      <stop offset="1" stop-color="#dc9b49"/>
    </linearGradient>
    <linearGradient id="linear-gradient7" x1="132.2" y1="393.3" x2="193.8" y2="393.3" gradientUnits="userSpaceOnUse">
      <stop offset="0" stop-color="#dc9b49"/>
      <stop offset="0" stop-color="#dc9c4b"/>
      <stop offset=".2" stop-color="#dca054"/>
      <stop offset=".3" stop-color="#dda864"/>
      <stop offset=".4" stop-color="#dfb379"/>
      <stop offset=".5" stop-color="#e1c195"/>
      <stop offset=".5" stop-color="#e3cfb1"/>
      <stop offset=".6" stop-color="#e1c49c"/>
      <stop offset=".6" stop-color="#dfb57e"/>
      <stop offset=".7" stop-color="#dea966"/>
      <stop offset=".8" stop-color="#dca156"/>
      <stop offset=".9" stop-color="#dc9c4c"/>
      <stop offset="1" stop-color="#dc9b49"/>
    </linearGradient>
    <linearGradient id="linear-gradient8" x1="98.2" y1="371.7" x2="158.9" y2="371.7" gradientUnits="userSpaceOnUse">
      <stop offset="0" stop-color="#dc9b49"/>
      <stop offset="0" stop-color="#dc9c4b"/>
      <stop offset=".2" stop-color="#dca054"/>
      <stop offset=".3" stop-color="#dda864"/>
      <stop offset=".4" stop-color="#dfb379"/>
      <stop offset=".5" stop-color="#e1c195"/>
      <stop offset=".5" stop-color="#e3cfb1"/>
      <stop offset=".6" stop-color="#e1c49c"/>
      <stop offset=".6" stop-color="#dfb57e"/>
      <stop offset=".7" stop-color="#dea966"/>
      <stop offset=".8" stop-color="#dca156"/>
      <stop offset=".9" stop-color="#dc9c4c"/>
      <stop offset="1" stop-color="#dc9b49"/>
    </linearGradient>
    <linearGradient id="linear-gradient9" x1="28.3" y1="265.2" x2="55" y2="265.2" gradientUnits="userSpaceOnUse">
      <stop offset="0" stop-color="#dc9b49"/>
      <stop offset="0" stop-color="#dc9c4b"/>
      <stop offset=".2" stop-color="#dca054"/>
      <stop offset=".3" stop-color="#dda864"/>
      <stop offset=".4" stop-color="#dfb379"/>
      <stop offset=".5" stop-color="#e1c195"/>
      <stop offset=".5" stop-color="#e3cfb1"/>
      <stop offset=".6" stop-color="#e1c49c"/>
      <stop offset=".6" stop-color="#dfb57e"/>
      <stop offset=".7" stop-color="#dea966"/>
      <stop offset=".8" stop-color="#dca156"/>
      <stop offset=".9" stop-color="#dc9c4c"/>
      <stop offset="1" stop-color="#dc9b49"/>
    </linearGradient>
    <linearGradient id="linear-gradient10" x1="283" y1="410.7" x2="347.5" y2="410.7" gradientUnits="userSpaceOnUse">
      <stop offset="0" stop-color="#dc9b49"/>
      <stop offset="0" stop-color="#dc9c4b"/>
      <stop offset=".2" stop-color="#dca054"/>
      <stop offset=".3" stop-color="#dda864"/>
      <stop offset=".4" stop-color="#dfb379"/>
      <stop offset=".5" stop-color="#e1c195"/>
      <stop offset=".5" stop-color="#e3cfb1"/>
      <stop offset=".6" stop-color="#e1c49c"/>
      <stop offset=".6" stop-color="#dfb57e"/>
      <stop offset=".7" stop-color="#dea966"/>
      <stop offset=".8" stop-color="#dca156"/>
      <stop offset=".9" stop-color="#dc9c4c"/>
      <stop offset="1" stop-color="#dc9b49"/>
    </linearGradient>
    <linearGradient id="linear-gradient11" x1="318.3" y1="393.1" x2="379.9" y2="393.1" gradientUnits="userSpaceOnUse">
      <stop offset="0" stop-color="#dc9b49"/>
      <stop offset="0" stop-color="#dc9c4b"/>
      <stop offset=".2" stop-color="#dca054"/>
      <stop offset=".3" stop-color="#dda864"/>
      <stop offset=".4" stop-color="#dfb379"/>
      <stop offset=".5" stop-color="#e1c195"/>
      <stop offset=".5" stop-color="#e3cfb1"/>
      <stop offset=".6" stop-color="#e1c49c"/>
      <stop offset=".6" stop-color="#dfb57e"/>
      <stop offset=".7" stop-color="#dea966"/>
      <stop offset=".8" stop-color="#dca156"/>
      <stop offset=".9" stop-color="#dc9c4c"/>
      <stop offset="1" stop-color="#dc9b49"/>
    </linearGradient>
    <linearGradient id="linear-gradient12" x1="353.2" y1="371.6" x2="413.9" y2="371.6" gradientUnits="userSpaceOnUse">
      <stop offset="0" stop-color="#dc9b49"/>
      <stop offset="0" stop-color="#dc9c4b"/>
      <stop offset=".2" stop-color="#dca054"/>
      <stop offset=".3" stop-color="#dda864"/>
      <stop offset=".4" stop-color="#dfb379"/>
      <stop offset=".5" stop-color="#e1c195"/>
      <stop offset=".5" stop-color="#e3cfb1"/>
      <stop offset=".6" stop-color="#e1c49c"/>
      <stop offset=".6" stop-color="#dfb57e"/>
      <stop offset=".7" stop-color="#dea966"/>
      <stop offset=".8" stop-color="#dca156"/>
      <stop offset=".9" stop-color="#dc9c4c"/>
      <stop offset="1" stop-color="#dc9b49"/>
    </linearGradient>
    <linearGradient id="linear-gradient13" x1="384.5" y1="348.3" x2="443.1" y2="348.3" gradientUnits="userSpaceOnUse">
      <stop offset="0" stop-color="#dc9b49"/>
      <stop offset="0" stop-color="#dc9c4b"/>
      <stop offset=".2" stop-color="#dca054"/>
      <stop offset=".3" stop-color="#dda864"/>
      <stop offset=".4" stop-color="#dfb379"/>
      <stop offset=".5" stop-color="#e1c195"/>
      <stop offset=".5" stop-color="#e3cfb1"/>
      <stop offset=".6" stop-color="#e1c49c"/>
      <stop offset=".6" stop-color="#dfb57e"/>
      <stop offset=".7" stop-color="#dea966"/>
      <stop offset=".8" stop-color="#dca156"/>
      <stop offset=".9" stop-color="#dc9c4c"/>
      <stop offset="1" stop-color="#dc9b49"/>
    </linearGradient>
    <linearGradient id="linear-gradient14" x1="412.5" y1="322" x2="469" y2="322" gradientUnits="userSpaceOnUse">
      <stop offset="0" stop-color="#dc9b49"/>
      <stop offset="0" stop-color="#dc9c4b"/>
      <stop offset=".2" stop-color="#dca054"/>
      <stop offset=".3" stop-color="#dda864"/>
      <stop offset=".4" stop-color="#dfb379"/>
      <stop offset=".5" stop-color="#e1c195"/>
      <stop offset=".5" stop-color="#e3cfb1"/>
      <stop offset=".6" stop-color="#e1c49c"/>
      <stop offset=".6" stop-color="#dfb57e"/>
      <stop offset=".7" stop-color="#dea966"/>
      <stop offset=".8" stop-color="#dca156"/>
      <stop offset=".9" stop-color="#dc9c4c"/>
      <stop offset="1" stop-color="#dc9b49"/>
    </linearGradient>
    <linearGradient id="linear-gradient15" x1="435.3" y1="292.5" x2="490.1" y2="292.5" gradientUnits="userSpaceOnUse">
      <stop offset="0" stop-color="#dc9b49"/>
      <stop offset="0" stop-color="#dc9c4b"/>
      <stop offset=".2" stop-color="#dca054"/>
      <stop offset=".3" stop-color="#dda864"/>
      <stop offset=".4" stop-color="#dfb379"/>
      <stop offset=".5" stop-color="#e1c195"/>
      <stop offset=".5" stop-color="#e3cfb1"/>
      <stop offset=".6" stop-color="#e1c49c"/>
      <stop offset=".6" stop-color="#dfb57e"/>
      <stop offset=".7" stop-color="#dea966"/>
      <stop offset=".8" stop-color="#dca156"/>
      <stop offset=".9" stop-color="#dc9c4c"/>
      <stop offset="1" stop-color="#dc9b49"/>
    </linearGradient>
    <linearGradient id="linear-gradient16" x1="457.1" y1="265.2" x2="483.8" y2="265.2" gradientUnits="userSpaceOnUse">
      <stop offset="0" stop-color="#dc9b49"/>
      <stop offset="0" stop-color="#dc9c4b"/>
      <stop offset=".2" stop-color="#dca054"/>
      <stop offset=".3" stop-color="#dda864"/>
      <stop offset=".4" stop-color="#dfb379"/>
      <stop offset=".5" stop-color="#e1c195"/>
      <stop offset=".5" stop-color="#e3cfb1"/>
      <stop offset=".6" stop-color="#e1c49c"/>
      <stop offset=".6" stop-color="#dfb57e"/>
      <stop offset=".7" stop-color="#dea966"/>
      <stop offset=".8" stop-color="#dca156"/>
      <stop offset=".9" stop-color="#dc9c4c"/>
      <stop offset="1" stop-color="#dc9b49"/>
    </linearGradient>
    <linearGradient id="linear-gradient17" x1="243.6" y1="440.7" x2="267.5" y2="440.7" gradientUnits="userSpaceOnUse">
      <stop offset="0" stop-color="#dc9b49"/>
      <stop offset="0" stop-color="#dc9c4b"/>
      <stop offset=".2" stop-color="#dca054"/>
      <stop offset=".3" stop-color="#dda864"/>
      <stop offset=".4" stop-color="#dfb379"/>
      <stop offset=".5" stop-color="#e1c195"/>
      <stop offset=".5" stop-color="#e3cfb1"/>
      <stop offset=".6" stop-color="#e1c49c"/>
      <stop offset=".6" stop-color="#dfb57e"/>
      <stop offset=".7" stop-color="#dea966"/>
      <stop offset=".8" stop-color="#dca156"/>
      <stop offset=".9" stop-color="#dc9c4c"/>
      <stop offset="1" stop-color="#dc9b49"/>
    </linearGradient>
  </defs>
  <path class="st15" d="M455.8,132.9L263.3,21.8c-4.2-2.4-9.3-2.4-13.5,0L57.4,132.9c-4.2,2.4-6.7,6.9-6.7,11.7v222.2c0,4.8,2.6,9.3,6.7,11.7l192.4,111.1c4.2,2.4,9.3,2.4,13.5,0l192.4-111.1c4.2-2.4,6.7-6.9,6.7-11.7v-222.2c0-4.8-2.6-9.3-6.7-11.7h.1Z"/>
  <path class="st16" d="M440.1,141.9l-176.8-102.1c-4.2-2.4-9.3-2.4-13.5,0l-176.8,102.1c-4.2,2.4-6.7,6.9-6.7,11.7v204.1c0,4.8,2.6,9.3,6.7,11.7l176.8,102.1c4.2,2.4,9.3,2.4,13.5,0l176.8-102.1c4.2-2.4,6.7-6.9,6.7-11.7v-204.1c0-4.8-2.6-9.3-6.7-11.7h0Z"/>
  <path class="st17" d="M111.1,314.2c.6,0,.6-1,0-1s-.6,1,0,1Z"/>
  <path class="st17" d="M121.6,234.7c.6,0,.6-1,0-1s-.6,1,0,1Z"/>
  <path class="st17" d="M349.3,311.2c.6,0,.6-1,0-1s-.6,1,0,1Z"/>
  <path class="st17" d="M168.8,227.6c.6,0,.6-1,0-1s-.6,1,0,1Z"/>
  <path class="st17" d="M144.8,289.7c.6,0,.6-1,0-1s-.6,1,0,1Z"/>
  <path class="st17" d="M335.5,186.8c.6,0,.6-1,0-1s-.6,1,0,1Z"/>
  <path class="st17" d="M320.8,366.9c.6,0,.6-1,0-1s-.6,1,0,1Z"/>
  <path class="st17" d="M241.8,392.8c.6,0,.6-1,0-1s-.6,1,0,1Z"/>
  <path class="st17" d="M196.5,383.3c.6,0,.6-1,0-1s-.6,1,0,1Z"/>
  <path class="st17" d="M184.4,281.6c.6,0,.6-1,0-1s-.6,1,0,1Z"/>
  <path class="st17" d="M153.4,362.6c.6,0,.6-1,0-1s-.6,1,0,1Z"/>
  <path class="st17" d="M153.4,326.6c.6,0,.6-1,0-1s-.6,1,0,1Z"/>
  <path class="st17" d="M353.6,365.1c.6,0,.6-1,0-1s-.6,1,0,1Z"/>
  <path class="st17" d="M297.8,406.1c.6,0,.6-1,0-1s-.6,1,0,1Z"/>
  <path class="st17" d="M327.1,262c.6,0,.6-1,0-1s-.6,1,0,1Z"/>
  <g>
    <path class="st1" d="M125.8,372.2c4.3-13.5.7-40.5-12.1-54.8-9.4,23.8-1.8,41.4,6,49.9-8.9-5.4-26.2-10.7-50.8-1.7,17.1,16.6,44,16.4,56.9,6.6h0Z"/>
    <path class="st6" d="M96,346.3c5.4-11.7,5.5-37.8-4.7-52.8-12.9,23.1-6.2,39.5-.3,47.5-7.3-5.8-22.5-13.2-47.8-8.6,15.1,19.9,41.4,20.7,52.9,13.8h-.1Z"/>
    <path class="st5" d="M69.7,316.4c7-10.5,10.2-35.4,3.4-49.5-15.5,19-11.1,36.7-6.7,45-6.4-6.7-21.4-16.5-44.4-17.2,10.2,21.1,35.3,27,47.7,21.7Z"/>
    <path class="st2" d="M198.6,373.8c-2.3,20.1,4.2,42.5,19.8,52.8-18-4.6-39.8,4.2-53.8,16.3,20,9.3,50.2,5.7,64.4-11.6,1.1-21-13.4-45.6-30.4-57.4h0Z"/>
    <path class="st4" d="M167.7,359.6c-3.5,19.1-.1,37.6,12.3,48.1-15.8-5-32,.5-47.7,11.6,20.8,11.8,48.2,9.7,61.3-4.5,2.4-19.5-11.1-43.7-25.9-55.1h0Z"/>
    <path class="st3" d="M139.4,338.7c-7.2,26.1,2.1,42.9,11,51-12.2-5.6-31.7-5.9-52.2,5.1,20.1,14.4,47.2,11.7,59.9,0,3.7-17.7-5.6-44.5-18.7-56.1h0Z"/>
    <path class="st0" d="M52.7,288.2c8.2-17.1-6.8-38.8-21.1-46-9.1,15.3,1.2,45.2,21.1,46Z"/>
    <path class="st12" d="M293.7,426.5c15.6-10.3,22.2-32.6,19.8-52.8-17,11.9-31.5,36.4-30.4,57.4,14.2,17.3,44.4,20.9,64.4,11.6-14-12.1-35.8-20.9-53.8-16.3h0Z"/>
    <path class="st11" d="M332.2,407.6c12.4-10.5,15.8-29,12.3-48.1-14.9,11.4-28.3,35.7-25.9,55.1,13.2,14.2,40.5,16.4,61.3,4.5-15.8-11.1-32-16.6-47.7-11.6h0Z"/>
    <path class="st8" d="M361.7,389.6c8.9-8.1,18.2-24.9,11-51-13.1,11.5-22.4,38.4-18.7,56.1,12.7,11.7,39.8,14.4,59.9,0-20.5-11-40-10.7-52.2-5.1h0Z"/>
    <path class="st7" d="M392.4,367.4c7.8-8.5,15.4-26.1,6-49.9-12.8,14.2-16.4,41.3-12.1,54.8,12.8,9.8,39.8,10,56.9-6.6-24.5-9-41.9-3.6-50.8,1.7h0Z"/>
    <path class="st14" d="M421.2,341.1c5.9-8,12.5-24.5-.3-47.5-10.2,15-10.1,41.1-4.7,52.8,11.5,6.9,37.8,6.1,52.9-13.8-25.3-4.6-40.5,2.8-47.8,8.6h-.1Z"/>
    <path class="st9" d="M445.8,311.9c4.5-8.3,8.8-26-6.7-45-6.8,14.1-3.6,39,3.4,49.5,12.3,5.2,37.4-.6,47.7-21.7-23,.7-38,10.5-44.4,17.2Z"/>
    <path class="st10" d="M480.5,242.2c-14.2,7.2-29.3,28.9-21.1,46,19.9-.8,30.1-30.6,21.1-46h0Z"/>
    <path class="st13" d="M255.5,428.1c-6.6,0-12,5.6-12,12.6s5.4,12.6,12,12.6,12-5.6,12-12.6-5.4-12.6-12-12.6Z"/>
  </g>
  <g>
    <path class="st17" d="M205.3,218.1h-19.2l-3.5,7.8h-4.3l15.2-34.4h4.3l15.2,34.4h-4.3l-3.5-7.8ZM203.7,214.4l-8-18.1-8,18.1h16Z"/>
    <path class="st17" d="M216.4,200.1h4l6.5,20.9,7.1-20.9h3.3l7.1,20.9,6.5-20.9h4l-8.7,25.9h-3.6l-6.9-20.7-7,20.7h-3.5l-8.7-25.9Z"/>
    <path class="st17" d="M281.1,210.2v15.8h-3.8v-4.1c-1.8,3.1-5.7,4.7-9.1,4.7-5.5,0-9.5-3.2-9.5-8.3s4.6-8.6,10.2-8.6,5.8.6,8.4,1.5v-1c0-3.5-1.4-7.5-7-7.5s-5.2,1.1-7.6,2.4l-1.5-3.1c3.7-1.9,6.8-2.5,9.3-2.5,7,0,10.5,4.5,10.5,10.7ZM277.3,217.8v-4c-2.3-.6-5-1-7.8-1s-7.1,2.2-7.1,5.3,2.8,5.1,6.4,5.1,7.5-1.8,8.5-5.4Z"/>
    <path class="st17" d="M302.8,199.5v3.4c-5.9,0-10,3.6-10,8.7v14.5h-3.8v-25.9h3.8v5.1c1.5-3.5,5.3-5.7,10-5.7Z"/>
    <path class="st17" d="M332,191v35h-3.8v-4.9c-2,3.4-5.3,5.5-9.4,5.5-6.8,0-11.9-5.6-11.9-13.6s5.1-13.5,11.9-13.5,7.5,2.1,9.4,5.5v-14h3.8ZM328.2,213c0-6-3.6-10.2-8.7-10.2s-8.7,4.2-8.7,10.2,3.6,10.2,8.7,10.2,8.7-4.3,8.7-10.2Z"/>
    <path class="st17" d="M190.4,251.6h3.9l21.3,28v-28h3.9v34.4h-3.9l-21.3-28v28h-3.9v-34.4Z"/>
    <path class="st17" d="M249,270.2v15.8h-3.8v-4c-1.9,3-5.7,4.7-9.1,4.7-5.5,0-9.5-3.2-9.5-8.3s4.6-8.6,10.2-8.6,5.8.6,8.4,1.4v-.9c0-3.5-1.4-7.5-7-7.5s-5.2,1.1-7.6,2.4l-1.5-3.1c3.7-1.8,6.8-2.5,9.3-2.5,7.1,0,10.5,4.5,10.5,10.7ZM245.2,277.8v-4c-2.4-.6-5-1-7.8-1s-7.1,2.2-7.1,5.3,2.8,5.1,6.5,5.1,7.5-1.8,8.5-5.4Z"/>
    <path class="st17" d="M293.8,269.5v16.5h-3.8v-16c0-4.2-2.5-7.2-6-7.2s-7,2.8-7,6.7v16.5h-3.8v-16c0-4.2-2.4-7.2-6-7.2s-7,2.8-7,6.7v16.5h-3.8v-25.9h3.8v3.8c1.3-2.7,4.1-4.4,7.5-4.4s7,2.2,8.4,5.5c1.1-3.3,4.5-5.5,8.4-5.5s9.2,4.2,9.2,10Z"/>
    <path class="st17" d="M321.2,280.1l2.3,2.4c-2.2,2.5-6.8,4-10.4,4-6.9,0-13.1-5.7-13.1-13.6s5.8-13.5,12.8-13.5,12.3,5.9,12.3,15h-21.2c.5,5.1,4.1,8.8,9.2,8.8s6.6-1.3,8.2-3.1ZM303.9,271.1h17.4c-.5-4.6-3.3-8.3-8.4-8.3s-8.3,3.3-9,8.3Z"/>
  </g>
</svg>