<?xml version="1.0" encoding="UTF-8"?>
<svg id="Layer_2" data-name="Layer 2" xmlns="http://www.w3.org/2000/svg" xmlns:xlink="http://www.w3.org/1999/xlink" viewBox="0 0 530 410">
  <defs>
    <style>
      .cls-1 {
        filter: url(#drop-shadow-2);
      }

      .cls-2 {
        fill: #9ca3af;
      }

      .cls-3 {
        stroke: #4b5563;
      }

      .cls-3, .cls-4 {
        stroke-width: .5px;
      }

      .cls-3, .cls-4, .cls-5, .cls-6, .cls-7 {
        fill: none;
      }

      .cls-3, .cls-4, .cls-6 {
        stroke-linejoin: round;
      }

      .cls-4 {
        stroke: #a855f7;
      }

      .cls-5 {
        stroke: #e5e7eb;
      }

      .cls-8 {
        isolation: isolate;
      }

      .cls-9 {
        fill: #fff;
      }

      .cls-6 {
        stroke-linecap: round;
      }

      .cls-6, .cls-7 {
        stroke: #9ca3af;
        stroke-width: .75px;
      }

      .cls-10 {
        fill: #a855f7;
      }

      .cls-11 {
        fill: #4b5563;
      }

      .cls-12 {
        fill: #ff6e36;
      }

      .cls-13 {
        fill: #f3f4f6;
      }

      .cls-14 {
        fill: #7c3aed;
      }
    </style>
    <filter id="drop-shadow-2" x="72.04" y="-55.56" width="387.84" height="435.84" filterUnits="userSpaceOnUse">
      <feOffset dx="2" dy="2"/>
      <feGaussianBlur result="blur" stdDeviation="4"/>
      <feFlood flood-color="#c6b8a1" flood-opacity=".57"/>
      <feComposite in2="blur" operator="in"/>
      <feComposite in="SourceGraphic"/>
    </filter>
  </defs>
  <rect class="cls-12" x="-1.5" y="-1.84" width="533" height="413.68"/>
  <g class="cls-1">
    <rect class="cls-9" x="82.12" y="-45.42" width="363.73" height="411.5" rx="6" ry="6"/>
  </g>
  <rect class="cls-13" x="109.79" y="-17.8" width="315.48" height="267.3" rx="10" ry="10"/>
  <g class="cls-8">
    <path class="cls-14" d="M110.74,280.36l.27-2.02h-.84v-.61h.94l.2-1.49h-.88v-.61h.98l.27-1.96h.6l-.26,1.96h1.07l.27-1.96h.61l-.26,1.96h.84v.61h-.94l-.18,1.49h.88v.61h-.98l-.27,2.02h-.62l.27-2.02h-1.07l-.27,2.02h-.62ZM112.79,277.73l.2-1.49h-1.07l-.2,1.49h1.07Z"/>
    <path class="cls-14" d="M117,274.18h-2.11v-.76h5.13v.76h-2.12v6.17h-.9v-6.17Z"/>
    <path class="cls-14" d="M120.54,278.03c.02,1.22.8,1.73,1.71,1.73.65,0,1.04-.11,1.38-.26l.15.65c-.32.14-.86.31-1.66.31-1.53,0-2.45-1.01-2.45-2.51s.88-2.68,2.33-2.68c1.62,0,2.06,1.43,2.06,2.34,0,.19-.02.33-.03.42h-3.5ZM123.19,277.38c.01-.58-.24-1.47-1.25-1.47-.92,0-1.32.84-1.39,1.47h2.64Z"/>
    <path class="cls-14" d="M127.94,280.36l-.07-.63h-.03c-.28.39-.81.74-1.52.74-1.01,0-1.52-.71-1.52-1.43,0-1.2,1.07-1.86,2.99-1.85v-.1c0-.41-.11-1.15-1.13-1.15-.46,0-.95.14-1.3.37l-.21-.6c.41-.27,1.01-.44,1.63-.44,1.52,0,1.89,1.04,1.89,2.04v1.86c0,.43.02.85.08,1.19h-.82ZM127.81,277.82c-.99-.02-2.11.15-2.11,1.12,0,.59.39.86.85.86.65,0,1.06-.41,1.2-.83.03-.09.05-.2.05-.29v-.86Z"/>
    <path class="cls-14" d="M130.15,276.72c0-.51-.01-.94-.04-1.35h.79l.04.8h.03c.28-.47.74-.92,1.56-.92.68,0,1.19.41,1.41,1h.02c.15-.28.35-.49.56-.65.3-.23.63-.35,1.1-.35.66,0,1.63.43,1.63,2.16v2.93h-.88v-2.82c0-.96-.35-1.53-1.08-1.53-.51,0-.92.38-1.07.82-.04.12-.07.29-.07.45v3.08h-.88v-2.98c0-.79-.35-1.37-1.04-1.37-.56,0-.98.45-1.12.91-.05.13-.07.29-.07.44v3h-.88v-3.63Z"/>
    <path class="cls-14" d="M138.72,277c0-.64-.02-1.15-.04-1.62h.81l.04.85h.02c.37-.61.96-.97,1.77-.97,1.2,0,2.11,1.02,2.11,2.53,0,1.79-1.09,2.67-2.26,2.67-.66,0-1.23-.29-1.53-.78h-.02v2.71h-.89v-5.39ZM139.62,278.33c0,.13.02.26.04.37.17.63.71,1.06,1.36,1.06.96,0,1.51-.78,1.51-1.92,0-1-.53-1.85-1.48-1.85-.62,0-1.19.44-1.37,1.12-.03.11-.06.25-.06.37v.85Z"/>
    <path class="cls-14" d="M144.58,273.05h.91v7.3h-.91v-7.3Z"/>
    <path class="cls-14" d="M149.76,280.36l-.07-.63h-.03c-.28.39-.81.74-1.52.74-1.01,0-1.52-.71-1.52-1.43,0-1.2,1.07-1.86,2.99-1.85v-.1c0-.41-.11-1.15-1.13-1.15-.46,0-.95.14-1.3.37l-.21-.6c.41-.27,1.01-.44,1.64-.44,1.52,0,1.89,1.04,1.89,2.04v1.86c0,.43.02.85.08,1.19h-.82ZM149.63,277.82c-.99-.02-2.11.15-2.11,1.12,0,.59.39.86.85.86.65,0,1.06-.41,1.2-.83.03-.09.05-.2.05-.29v-.86Z"/>
    <path class="cls-14" d="M152.21,275.38l1.09,2.94c.11.33.24.72.32,1.02h.02c.09-.3.2-.68.32-1.04l.99-2.92h.96l-1.36,3.55c-.65,1.71-1.09,2.58-1.71,3.12-.44.39-.88.54-1.11.59l-.23-.76c.23-.07.53-.22.79-.44.25-.2.55-.54.76-1.01.04-.09.07-.16.07-.22s-.02-.12-.06-.24l-1.84-4.59h.99Z"/>
    <path class="cls-14" d="M157.13,278.03c.02,1.22.8,1.73,1.71,1.73.65,0,1.04-.11,1.38-.26l.15.65c-.32.14-.86.31-1.66.31-1.53,0-2.45-1.01-2.45-2.51s.88-2.68,2.33-2.68c1.62,0,2.06,1.43,2.06,2.34,0,.19-.02.33-.03.42h-3.5ZM159.78,277.38c0-.58-.24-1.47-1.26-1.47-.91,0-1.32.84-1.39,1.47h2.64Z"/>
    <path class="cls-14" d="M161.78,276.93c0-.59,0-1.09-.04-1.55h.79l.03.98h.04c.23-.67.77-1.09,1.38-1.09.1,0,.17.01.26.03v.85c-.09-.02-.18-.03-.31-.03-.64,0-1.09.48-1.21,1.16-.02.12-.04.27-.04.42v2.65h-.89v-3.42Z"/>
  </g>
  <g>
    <circle class="cls-7" cx="116.64" cy="304.36" r="6.86"/>
    <path class="cls-6" d="M113.9,305.05l2.06,2.06,4.12-4.8"/>
    <g class="cls-8">
      <path class="cls-11" d="M129.42,307.79v-.52l.66-.64c1.59-1.52,2.31-2.32,2.32-3.26,0-.63-.31-1.22-1.24-1.22-.57,0-1.04.29-1.33.53l-.27-.6c.43-.36,1.05-.63,1.77-.63,1.34,0,1.91.92,1.91,1.81,0,1.15-.84,2.08-2.15,3.35l-.5.46v.02h2.8v.7h-3.98Z"/>
      <path class="cls-11" d="M134.27,306.21c0-.79.47-1.34,1.24-1.67v-.03c-.7-.33-1-.86-1-1.4,0-.99.83-1.66,1.93-1.66,1.21,0,1.81.76,1.81,1.54,0,.53-.26,1.09-1.03,1.46v.03c.78.31,1.26.85,1.26,1.61,0,1.08-.93,1.81-2.12,1.81-1.31,0-2.09-.78-2.09-1.69ZM137.63,306.17c0-.76-.53-1.12-1.37-1.36-.73.21-1.12.69-1.12,1.29-.03.63.45,1.19,1.25,1.19s1.25-.47,1.25-1.11ZM135.31,303.05c0,.62.47.96,1.19,1.15.54-.18.95-.57.95-1.13,0-.5-.3-1.02-1.06-1.02-.7,0-1.08.46-1.08,1Z"/>
      <path class="cls-11" d="M142.85,301.32h.83v5.77h2.76v.7h-3.6v-6.47Z"/>
      <path class="cls-11" d="M148.29,301.84c0,.29-.2.52-.54.52-.3,0-.51-.23-.51-.52s.22-.53.53-.53.52.23.52.53ZM147.35,307.79v-4.65h.84v4.65h-.84Z"/>
      <path class="cls-11" d="M150.44,305.27h.02c.12-.16.28-.36.41-.53l1.36-1.6h1.02l-1.79,1.91,2.04,2.74h-1.03l-1.6-2.23-.43.48v1.75h-.83v-6.81h.83v4.3Z"/>
      <path class="cls-11" d="M154.57,305.62c.02,1.14.75,1.61,1.59,1.61.6,0,.97-.11,1.29-.24l.14.6c-.3.13-.81.29-1.55.29-1.43,0-2.28-.94-2.28-2.34s.83-2.5,2.18-2.5c1.52,0,1.92,1.33,1.92,2.19,0,.17-.02.31-.03.39h-3.26ZM157.05,305.02c0-.54-.22-1.37-1.17-1.37-.85,0-1.23.79-1.29,1.37h2.47Z"/>
      <path class="cls-11" d="M158.8,306.92c.25.16.69.34,1.11.34.61,0,.9-.31.9-.69,0-.4-.24-.62-.86-.85-.84-.3-1.23-.76-1.23-1.31,0-.75.6-1.36,1.6-1.36.47,0,.88.13,1.14.29l-.21.61c-.18-.12-.52-.27-.95-.27-.5,0-.78.29-.78.63,0,.38.28.56.88.79.81.31,1.22.71,1.22,1.4,0,.82-.63,1.39-1.74,1.39-.51,0-.98-.12-1.3-.32l.21-.64Z"/>
    </g>
    <circle class="cls-2" cx="183.86" cy="304.36" r="1.03"/>
    <g class="cls-8">
      <path class="cls-11" d="M192.44,306.21c0-.79.47-1.34,1.24-1.67v-.03c-.7-.33-1-.86-1-1.4,0-.99.83-1.66,1.93-1.66,1.21,0,1.81.76,1.81,1.54,0,.53-.26,1.09-1.03,1.46v.03c.78.31,1.26.85,1.26,1.61,0,1.08-.93,1.81-2.12,1.81-1.31,0-2.09-.78-2.09-1.69ZM195.8,306.17c0-.76-.53-1.12-1.37-1.36-.73.21-1.12.69-1.12,1.29-.03.63.45,1.19,1.25,1.19s1.25-.47,1.25-1.11ZM193.48,303.05c0,.62.47.96,1.19,1.15.54-.18.95-.57.95-1.13,0-.5-.3-1.02-1.06-1.02-.7,0-1.08.46-1.08,1Z"/>
      <path class="cls-11" d="M205.54,307.58c-.31.15-.92.31-1.71.31-1.82,0-3.2-1.15-3.2-3.27s1.37-3.4,3.38-3.4c.81,0,1.31.17,1.54.29l-.2.68c-.32-.15-.77-.27-1.31-.27-1.52,0-2.52.97-2.52,2.67,0,1.58.91,2.6,2.49,2.6.51,0,1.03-.11,1.36-.27l.17.66Z"/>
      <path class="cls-11" d="M210.66,305.43c0,1.72-1.19,2.47-2.31,2.47-1.26,0-2.23-.92-2.23-2.39,0-1.55,1.02-2.47,2.3-2.47s2.24.97,2.24,2.39ZM206.98,305.48c0,1.02.59,1.79,1.41,1.79s1.41-.76,1.41-1.8c0-.79-.39-1.79-1.39-1.79s-1.43.92-1.43,1.8Z"/>
      <path class="cls-11" d="M211.73,304.4c0-.48,0-.87-.04-1.26h.74l.04.75h.03c.26-.44.69-.85,1.46-.85.63,0,1.11.38,1.31.93h.02c.14-.26.33-.46.52-.6.28-.21.59-.33,1.03-.33.61,0,1.53.4,1.53,2.02v2.74h-.82v-2.63c0-.89-.33-1.43-1.01-1.43-.48,0-.85.35-1,.77-.04.12-.07.27-.07.42v2.87h-.82v-2.78c0-.74-.33-1.28-.97-1.28-.53,0-.91.42-1.04.84-.05.12-.07.27-.07.41v2.8h-.82v-3.39Z"/>
      <path class="cls-11" d="M219.74,304.4c0-.48,0-.87-.04-1.26h.74l.04.75h.03c.26-.44.69-.85,1.46-.85.63,0,1.11.38,1.31.93h.02c.14-.26.33-.46.52-.6.28-.21.59-.33,1.03-.33.61,0,1.53.4,1.53,2.02v2.74h-.82v-2.63c0-.89-.33-1.43-1.01-1.43-.48,0-.85.35-1,.77-.04.12-.07.27-.07.42v2.87h-.82v-2.78c0-.74-.33-1.28-.97-1.28-.53,0-.91.42-1.04.84-.05.12-.07.27-.07.41v2.8h-.82v-3.39Z"/>
      <path class="cls-11" d="M228.21,305.62c.02,1.14.75,1.61,1.59,1.61.61,0,.97-.11,1.29-.24l.14.6c-.3.13-.81.29-1.55.29-1.43,0-2.28-.94-2.28-2.34s.82-2.5,2.18-2.5c1.52,0,1.92,1.33,1.92,2.19,0,.17-.02.31-.03.39h-3.26ZM230.69,305.02c0-.54-.22-1.37-1.17-1.37-.85,0-1.23.79-1.3,1.37h2.47Z"/>
      <path class="cls-11" d="M232.56,304.4c0-.48,0-.87-.04-1.26h.75l.05.77h.02c.23-.44.77-.87,1.54-.87.64,0,1.64.38,1.64,1.98v2.77h-.84v-2.68c0-.75-.28-1.37-1.08-1.37-.56,0-.99.39-1.13.86-.04.11-.06.25-.06.39v2.79h-.84v-3.39Z"/>
      <path class="cls-11" d="M238.86,301.81v1.33h1.21v.64h-1.21v2.5c0,.58.16.9.63.9.22,0,.38-.03.49-.06l.04.63c-.16.07-.42.12-.75.12-.39,0-.71-.12-.91-.35-.24-.25-.33-.66-.33-1.21v-2.53h-.72v-.64h.72v-1.11l.82-.22Z"/>
      <path class="cls-11" d="M240.91,306.92c.25.16.69.34,1.11.34.61,0,.9-.31.9-.69,0-.4-.24-.62-.86-.85-.83-.3-1.23-.76-1.23-1.31,0-.75.6-1.36,1.6-1.36.47,0,.88.13,1.14.29l-.21.61c-.18-.12-.52-.27-.95-.27-.5,0-.78.29-.78.63,0,.38.28.56.88.79.81.31,1.22.71,1.22,1.4,0,.82-.63,1.39-1.74,1.39-.51,0-.98-.12-1.3-.32l.21-.64Z"/>
    </g>
  </g>
  <line class="cls-5" x1="109.79" y1="324.93" x2="425.27" y2="324.93"/>
  <g>
    <path class="cls-3" d="M192.09,344.14v6.86h2.06v-6.86h-2.06ZM195.51,351v-6.86l2.06-2.74c.91-.91,1.6-.91,2.06,0v4.12h4.8c.91,0,1.14.46.69,1.37l-1.37,3.43c-.46.46-1.14.69-2.06.69h-6.17Z"/>
    <g class="cls-8">
      <path class="cls-11" d="M214.81,342.01h.89v6.18h2.96v.75h-3.86v-6.93Z"/>
      <path class="cls-11" d="M220.65,342.56c0,.31-.22.55-.58.55-.32,0-.54-.25-.54-.55s.24-.57.56-.57.56.25.56.57ZM219.64,348.94v-4.98h.9v4.98h-.9Z"/>
      <path class="cls-11" d="M222.94,346.25h.02c.12-.17.3-.39.44-.57l1.46-1.72h1.09l-1.92,2.05,2.19,2.93h-1.1l-1.72-2.39-.46.51v1.87h-.89v-7.3h.89v4.61Z"/>
      <path class="cls-11" d="M227.37,346.62c.02,1.22.8,1.73,1.71,1.73.65,0,1.04-.11,1.38-.26l.15.65c-.32.14-.86.31-1.66.31-1.53,0-2.45-1.01-2.45-2.51s.88-2.68,2.33-2.68c1.62,0,2.06,1.43,2.06,2.34,0,.19-.02.33-.03.42h-3.5ZM230.03,345.97c0-.58-.24-1.47-1.25-1.47-.92,0-1.32.84-1.39,1.47h2.64Z"/>
    </g>
  </g>
  <g>
    <path class="cls-4" d="M322.39,341.39c0-1.83.91-2.74,2.74-2.74h9.6c1.83,0,2.74.91,2.74,2.74v5.49c0,1.83-.91,2.74-2.74,2.74h-6.86l-2.74,2.74v-2.74c-1.83,0-2.74-.91-2.74-2.74v-5.49Z"/>
    <circle class="cls-10" cx="326.51" cy="344.14" r=".69"/>
    <circle class="cls-10" cx="329.94" cy="344.14" r=".69"/>
    <circle class="cls-10" cx="333.37" cy="344.14" r=".69"/>
    <g class="cls-8">
      <path class="cls-11" d="M349.97,347.34c-.33.17-.99.33-1.83.33-1.95,0-3.42-1.23-3.42-3.51s1.47-3.64,3.62-3.64c.86,0,1.41.19,1.65.31l-.22.73c-.34-.17-.82-.29-1.4-.29-1.62,0-2.7,1.04-2.7,2.86,0,1.7.98,2.79,2.66,2.79.55,0,1.1-.11,1.46-.29l.19.71Z"/>
      <path class="cls-11" d="M355.45,345.04c0,1.84-1.28,2.64-2.48,2.64-1.35,0-2.39-.99-2.39-2.56,0-1.67,1.09-2.64,2.47-2.64s2.4,1.04,2.4,2.56ZM351.5,345.09c0,1.09.63,1.91,1.51,1.91s1.51-.81,1.51-1.93c0-.84-.42-1.91-1.49-1.91s-1.53.99-1.53,1.93Z"/>
      <path class="cls-11" d="M356.59,343.94c0-.51-.01-.94-.04-1.35h.79l.04.8h.03c.28-.47.74-.92,1.56-.92.68,0,1.19.41,1.41,1h.02c.15-.28.35-.49.56-.65.3-.23.63-.35,1.1-.35.66,0,1.63.43,1.63,2.16v2.93h-.88v-2.82c0-.96-.35-1.53-1.08-1.53-.51,0-.92.38-1.07.82-.04.12-.07.29-.07.45v3.08h-.88v-2.98c0-.79-.35-1.37-1.04-1.37-.56,0-.98.45-1.12.91-.05.13-.07.29-.07.44v3h-.88v-3.63Z"/>
      <path class="cls-11" d="M365.17,343.94c0-.51-.01-.94-.04-1.35h.79l.04.8h.03c.28-.47.74-.92,1.56-.92.68,0,1.19.41,1.41,1h.02c.15-.28.35-.49.55-.65.3-.23.63-.35,1.1-.35.66,0,1.63.43,1.63,2.16v2.93h-.88v-2.82c0-.96-.35-1.53-1.08-1.53-.51,0-.92.38-1.07.82-.04.12-.07.29-.07.45v3.08h-.88v-2.98c0-.79-.35-1.37-1.04-1.37-.57,0-.98.45-1.12.91-.05.13-.07.29-.07.44v3h-.88v-3.63Z"/>
      <path class="cls-11" d="M374.26,345.24c.02,1.22.8,1.73,1.71,1.73.65,0,1.04-.11,1.38-.26l.15.65c-.32.14-.86.31-1.66.31-1.53,0-2.45-1.01-2.45-2.51s.88-2.68,2.33-2.68c1.62,0,2.06,1.43,2.06,2.34,0,.19-.02.33-.03.42h-3.5ZM376.91,344.59c0-.58-.24-1.47-1.25-1.47-.92,0-1.32.84-1.39,1.47h2.64Z"/>
      <path class="cls-11" d="M378.91,343.94c0-.51,0-.94-.04-1.35h.8l.05.82h.02c.25-.47.82-.94,1.64-.94.69,0,1.76.41,1.76,2.12v2.97h-.91v-2.87c0-.8-.3-1.47-1.15-1.47-.6,0-1.06.42-1.21.93-.04.11-.06.27-.06.42v2.99h-.91v-3.63Z"/>
      <path class="cls-11" d="M385.67,341.16v1.43h1.3v.69h-1.3v2.68c0,.62.17.97.68.97.24,0,.41-.03.52-.06l.04.68c-.18.07-.45.12-.8.12-.42,0-.76-.13-.98-.38-.26-.27-.35-.71-.35-1.3v-2.72h-.77v-.69h.77v-1.19l.88-.24Z"/>
    </g>
  </g>
</svg>